<?xml version="1.0" encoding="iso-8859-1"?>
<!-- Uploaded to: SVG Repo, www.svgrepo.com, Generator: SVG Repo Mixer Tools -->
<!DOCTYPE svg PUBLIC "-//W3C//DTD SVG 1.1//EN" "http://www.w3.org/Graphics/SVG/1.1/DTD/svg11.dtd">
<svg fill="#000000" version="1.1" id="Capa_1" xmlns="http://www.w3.org/2000/svg" xmlns:xlink="http://www.w3.org/1999/xlink" 
	 width="800px" height="800px" viewBox="0 0 190.314 190.315"
	 xml:space="preserve">
<g>
	<g>
		<ellipse cx="78.501" cy="28.089" rx="25.057" ry="24.729"/>
		<path d="M176.913,160.104h-0.018l-88.842,0.063l5.68-2.454c-2.662-0.464-5.271-1.824-5.965-2.164
			c-0.518-0.255-10.502-5.222-20.832-15.248l-25.053,11.328c-0.739-13.812,1.408-27.83,5.917-40
			c-2.837-7.632-4.581-16.448-4.257-26.394c0.736,22.42,11.246,38.218,21.32,48.291c14.025,14.022,30,19.847,30.674,20.089
			c0.994,0.355,2.011,0.523,3.009,0.523c2.168,0,4.442-0.449,6.211-1.576c-0.017,0.024-0.031,0.049-0.05,0.072l67.411-30.483
			c6.744-3.05,9.739-10.989,6.689-17.733c-3.051-6.744-10.99-9.738-17.734-6.689l-72.012,32.566
			c-10.872-7.066-25.167-20.339-27.356-42.062c0.232-0.248,0.467-0.495,0.704-0.737c8.054-8.229,7.909-21.429-0.319-29.48
			c-8.229-8.054-21.428-7.91-29.48,0.318C6.947,84.558-5.069,128.239,1.999,169.615c1.736,10.161,10.553,17.34,20.525,17.34
			c0.428,0,0.855-0.015,1.287-0.04c0.063,0.001,0.125,0.003,0.188,0.003h0.019l152.913-0.151
			c7.399-0.011,13.393-5.967,13.384-13.367C190.307,166.001,184.307,160.104,176.913,160.104z"/>
	</g>
</g>
</svg>